<?xml version="1.0" encoding="UTF-8" standalone="no"?>
<!DOCTYPE svg PUBLIC "-//W3C//DTD SVG 1.1//EN" "http://www.w3.org/Graphics/SVG/1.1/DTD/svg11.dtd">
<svg width="100%" height="100%" viewBox="0 0 2829 2348" version="1.1" xmlns="http://www.w3.org/2000/svg" xmlns:xlink="http://www.w3.org/1999/xlink" xml:space="preserve" xmlns:serif="http://www.serif.com/" style="fill-rule:evenodd;clip-rule:evenodd;stroke-linecap:round;stroke-linejoin:round;stroke-miterlimit:1.5;">
    <g transform="matrix(1,0,0,1,-1464.79,-414.46)">
        <g id="FILE::grabliste.html">
            <path d="M2949.77,2058.84C2950.29,2058.61 2791.5,2286.67 2706.51,2274.4C2627.7,2263.02 2537.69,2171.24 2480.25,2106.54C2379.8,1993.39 2185.55,1845.33 2082.77,1881.34C1969.92,1920.88 1948.05,1987.03 1864.62,2176.93C1817.9,2283.29 1776.65,2334.63 1725.7,2287.28C1536.57,2111.54 1544.51,1913.59 1581.2,1753.5C1670.42,1364.16 1917.86,1167.42 1985.27,1104.27C2341.09,770.921 2532.35,1029.13 2586.25,1078.61C2757.35,1235.64 2879.35,1290.68 2982.73,1221.32C3113.19,1133.79 3186.21,892.549 3313.28,731.934C3503.16,491.933 3686.64,534.429 3756.24,610.277C3942.84,813.642 3820.69,928.668 3782.81,1088.33C3754.57,1207.41 3816.58,1375.68 3847.41,1449.13C3869.9,1502.73 4010.58,1854.39 4030.7,1941.81C4048.56,2019.39 4145.69,2214.56 3946.33,2155.21C3914.11,2141.53 3874.87,2136.62 3831.47,2134.57C3793.52,2133.52 3754.96,2142.73 3715.19,2165.86L3624.3,2223.11C3565.83,2268.39 3502.96,2277.09 3465.19,2251.82C3399.88,2208.14 3360.76,2158.22 3346.55,2141.32C3308.15,2095.68 3253.18,2024.77 3214.24,1986.77C3149.5,1923.57 3073.7,1887.72 2949.77,2058.84Z" style="fill:none;stroke:rgb(0,255,0);stroke-width:8.33px;"/>
            <path d="M4200.29,1166.89C4121.77,1168.35 4063.45,1181.26 4028.94,1207.67C3992.98,1231.78 3964.8,1272.15 3947.79,1335.89C3941.51,1387.83 3956.52,1453.41 3995.3,1534.2C4047.68,1666.9 4097.41,1807.77 4141.84,1964.97C4158.02,2026.27 4167.27,2096.81 4170.26,2175.72C4169.68,2243.77 4181.56,2306.42 4202.56,2365.12C4230.93,2443.97 4253.43,2514.47 4263.26,2566.89C4277.9,2654.35 4283.57,2644.4 4288.81,2757.78" style="fill:none;stroke:rgb(0,255,0);stroke-width:8.33px;"/>
            <path d="M4185.23,1043.51C4129.34,1053.92 4078.95,1057 4042.26,1041.79C3998.25,1026.89 3976.6,992.856 3982.58,935.149C3993.82,891.967 3998.74,840.552 3996.06,779.2C3986.4,703.202 3958.65,634.024 3911.65,572.103C3859.27,505.394 3789.96,459.609 3708.18,429.228C3640.66,411.864 3563.48,415.096 3474.07,444.389C3423.05,467.919 3372.06,499.606 3321.11,539.535C3281.08,581.036 3244.37,626.676 3214.1,680.36C3169.71,767.057 3126.61,853.261 3070.41,944.45C3034.37,994.627 2999.55,1038.59 2940.36,1057.62C2911.65,1074.72 2861.28,1074.45 2800.81,1061.14C2766.36,1055.29 2720.35,1033.11 2666.82,1001.17C2623.96,975.138 2571.52,931.913 2513.22,883.452C2446.47,832.1 2389.47,797.554 2346.34,786.943C2300.8,769.426 2243.89,773.92 2172.72,799.248C2118.92,826.414 2065.34,857.839 2014.58,896.969C1937.53,964.442 1862.37,1042.47 1788.95,1130.23C1721.13,1217.95 1657.63,1309.42 1600.42,1406.3C1554.92,1490.93 1518.26,1585.85 1492.64,1693.64C1471.38,1785.19 1464.16,1876.86 1472.1,1968.66C1480.92,2055.39 1502.88,2135.56 1542.51,2206.94C1570.66,2263.33 1601.95,2316.81 1640.25,2363.8C1667.22,2402.19 1698.86,2438.24 1743.4,2467.8C1758.59,2477.62 1779.45,2481.45 1809.96,2475.14C1828.44,2465.18 1847.24,2447.01 1866.48,2417.39C1893.64,2374.17 1919.44,2324.05 1943.91,2267.16C1961.71,2226.86 1984.57,2184.63 2011.69,2140.76C2030.95,2109.75 2055.7,2081.09 2089.09,2056.16C2109.41,2042 2135.91,2033.04 2171.7,2031.91C2218.67,2037.16 2268.23,2056.28 2321.19,2097.73C2360.69,2132.18 2402.5,2177 2447.76,2237.25C2483.93,2290.07 2522.86,2342.57 2567.21,2394.45C2605.33,2436.27 2644.48,2464.36 2686.27,2457C2707.03,2459.52 2738.64,2441.83 2779.35,2407.24C2826.61,2362.81 2874.79,2314.34 2925.36,2255.38C2965.75,2210.21 3005.69,2174.65 3045.33,2145.35C3072.75,2126.09 3105.43,2119.05 3145.46,2129C3165.59,2136.23 3192.34,2153.46 3226.63,2182.06L3342.75,2304.97C3392.52,2355.5 3437.36,2390.46 3471.94,2393.08C3506.85,2400.26 3549.04,2383.53 3596.14,2350.7C3638.02,2320.69 3685.18,2293.22 3739.05,2268.95C3785.65,2249.28 3836.32,2239.22 3895.16,2248.48C3940.43,2256.79 3983.31,2288.19 4024.46,2336.47C4066.66,2395.97 4103.14,2466.68 4131.79,2552.72C4150.3,2611.17 4164.21,2679.85 4173.96,2757.78" style="fill:none;stroke:rgb(0,255,0);stroke-width:8.33px;"/>
            <path id="Buchsfeld" d="M1701.34,1956.62C1696.96,1953.09 1692.82,1947.25 1691.14,1938.96C1672.79,1848.38 1654.53,1767.79 1809.38,1515.11C1854.37,1441.7 1907.74,1373.65 1971.79,1312.42C2079.29,1223.08 2193.84,1173.01 2318.46,1179.11C2379.53,1178.54 2470.04,1221.47 2595.24,1315.66C2643.63,1351.29 2699.32,1380.39 2764.42,1401.07C2859.02,1415.44 2949.25,1403.12 3034.64,1361.25C3108.2,1326.98 3197.38,1238.37 3236.62,1154.32C3296.75,1013.22 3325.9,959.711 3353.91,960.479C3389.91,950.121 3423.05,958.553 3454.52,977.917C3499.41,1009.77 3522.46,1053.38 3526.53,1102.91C3529.78,1210.29 3535.91,1301.59 3555.72,1365.43L3636.3,1590.27C3691.28,1695.23 3718.24,1794.65 3722.45,1889.59C3715.28,1949.69 3675.61,1983.13 3616.2,2000.37C3531.94,2020.44 3459.69,1995.85 3399.07,1928.01L3232.15,1793.37C3167.06,1758.02 3095.18,1747.92 3019.1,1753.5C2922.62,1781.26 2842.47,1847.16 2772.57,1936.97C2734.32,1971.41 2693.31,1970.83 2650.15,1942.62C2576.39,1887.07 2503.51,1828.17 2431.68,1765.22C2362.28,1716.9 2290.71,1686.22 2217.38,1670.09C2099.51,1641.11 2015.68,1665.39 1950.56,1718.92L1777.32,1920.4C1748.43,1959.76 1721.87,1981.25 1701.34,1956.62Z" style="fill:rgb(0,159,30);fill-opacity:0.54;"/>
            <g id="Bank" transform="matrix(0.673455,0.561243,-0.706225,0.847424,2366.53,-1458.44)">
                <g transform="matrix(0.883884,0,0,0.811653,390.538,341.12)">
                    <rect x="3049.26" y="1805.72" width="314.095" height="15.977" style="fill:rgb(170,121,66);"/>
                    <path d="M3363.36,1805.72L3049.26,1805.72L3049.26,1821.7L3363.36,1821.7L3363.36,1805.72ZM3054.64,1817.05L3357.98,1817.05L3357.98,1810.38L3054.64,1810.38L3054.64,1817.05Z" style="fill-opacity:0.42;"/>
                </g>
                <g transform="matrix(0.883884,0,0,0.811653,390.538,328.152)">
                    <rect x="3049.26" y="1805.72" width="314.095" height="15.977" style="fill:rgb(170,121,66);"/>
                    <path d="M3363.36,1805.72L3049.26,1805.72L3049.26,1821.7L3363.36,1821.7L3363.36,1805.72ZM3054.64,1817.05L3357.98,1817.05L3357.98,1810.38L3054.64,1810.38L3054.64,1817.05Z" style="fill-opacity:0.42;"/>
                </g>
                <g transform="matrix(0.883884,0,0,0.811653,390.538,315.185)">
                    <rect x="3049.26" y="1805.72" width="314.095" height="15.977" style="fill:rgb(170,121,66);"/>
                    <path d="M3363.36,1805.72L3049.26,1805.72L3049.26,1821.7L3363.36,1821.7L3363.36,1805.72ZM3054.64,1817.05L3357.98,1817.05L3357.98,1810.38L3054.64,1810.38L3054.64,1817.05Z" style="fill-opacity:0.42;"/>
                </g>
                <g transform="matrix(0.883884,0,0,0.811653,390.538,302.217)">
                    <rect x="3049.26" y="1805.72" width="314.095" height="15.977" style="fill:rgb(170,121,66);"/>
                    <path d="M3363.36,1805.72L3049.26,1805.72L3049.26,1821.7L3363.36,1821.7L3363.36,1805.72ZM3054.64,1817.05L3357.98,1817.05L3357.98,1810.38L3054.64,1810.38L3054.64,1817.05Z" style="fill-opacity:0.42;"/>
                </g>
                <g transform="matrix(0.883884,0,0,0.811653,390.538,354.478)">
                    <rect x="3049.26" y="1805.72" width="314.095" height="15.977" style="fill:rgb(255,216,156);"/>
                    <path d="M3363.36,1805.72L3049.26,1805.72L3049.26,1821.7L3363.36,1821.7L3363.36,1805.72ZM3054.64,1817.05L3357.98,1817.05L3357.98,1810.38L3054.64,1810.38L3054.64,1817.05Z" style="fill-opacity:0.42;"/>
                </g>
                <g transform="matrix(0.883884,0,0,0.811653,390.538,367.446)">
                    <rect x="3049.26" y="1805.72" width="314.095" height="15.977" style="fill:rgb(255,216,156);"/>
                    <path d="M3363.36,1805.72L3049.26,1805.72L3049.26,1821.7L3363.36,1821.7L3363.36,1805.72ZM3054.64,1817.05L3357.98,1817.05L3357.98,1810.38L3054.64,1810.38L3054.64,1817.05Z" style="fill-opacity:0.42;"/>
                </g>
                <g transform="matrix(0.883884,0,0,0.811653,390.538,380.413)">
                    <rect x="3049.26" y="1805.72" width="314.095" height="15.977" style="fill:rgb(255,216,156);"/>
                    <path d="M3363.36,1805.72L3049.26,1805.72L3049.26,1821.7L3363.36,1821.7L3363.36,1805.72ZM3054.64,1817.05L3357.98,1817.05L3357.98,1810.38L3054.64,1810.38L3054.64,1817.05Z" style="fill-opacity:0.42;"/>
                </g>
                <g transform="matrix(0.883884,0,0,0.811653,390.538,393.38)">
                    <rect x="3049.26" y="1805.72" width="314.095" height="15.977" style="fill:rgb(255,216,156);"/>
                    <path d="M3363.36,1805.72L3049.26,1805.72L3049.26,1821.7L3363.36,1821.7L3363.36,1805.72ZM3054.64,1817.05L3357.98,1817.05L3357.98,1810.38L3054.64,1810.38L3054.64,1817.05Z" style="fill-opacity:0.42;"/>
                </g>
            </g>
            <g id="LINK::u2-25" transform="matrix(-0.47457,-0.880218,0.880218,-0.47457,2162.6,6144.26)"><a xlink:href="grabliste.html#LINK::u2-25">
                <g transform="matrix(0.955704,0,-5.55112e-17,1.00513,629.49,-187.702)">
                    <rect x="3312.17" y="2063.45" width="56.677" height="53.89" style="fill:rgb(255,0,0);"/>
                    <path d="M3368.85,2063.45L3312.17,2063.45L3312.17,2117.34L3368.85,2117.34L3368.85,2063.45ZM3364.49,2067.59L3316.53,2067.59L3316.53,2113.19L3364.49,2113.19L3364.49,2067.59Z"/>
                </g>
                <g transform="matrix(1,7.56853e-17,0,1,476.307,-137.421)">
                    <text x="3372.81px" y="2070.53px" style="font-family:'ArialMT', 'Arial', sans-serif;font-size:50px;">2-25</text>
                </g></a></g>
            <g id="LINK::u2-24" transform="matrix(0.0741542,-0.997247,0.997247,0.0741542,-57.0122,5516.27)"><a xlink:href="grabliste.html#LINK::u2-24">
                <g transform="matrix(0.955704,0,-5.55112e-17,1.00513,629.49,-187.702)">
                    <rect x="3312.17" y="2063.45" width="56.677" height="53.89" style="fill:rgb(255,0,0);"/>
                    <path d="M3368.85,2063.45L3312.17,2063.45L3312.17,2117.34L3368.85,2117.34L3368.85,2063.45ZM3316.53,2067.59L3316.53,2113.19L3364.49,2113.19L3364.49,2067.59L3316.53,2067.59Z"/>
                </g>
                <g transform="matrix(1,7.56853e-17,0,1,476.307,-137.421)">
                    <text x="3372.81px" y="2070.53px" style="font-family:'ArialMT', 'Arial', sans-serif;font-size:50px;">2-24</text>
                </g></a></g>
            <g id="LINK::u2-23" transform="matrix(0.501832,-0.864965,0.864965,0.501832,-1288.55,4247.86)"><a xlink:href="grabliste.html#LINK::u2-23">
                <g transform="matrix(0.955704,0,-5.55112e-17,1.00513,629.49,-187.702)">
                    <rect x="3312.17" y="2063.45" width="56.677" height="53.89" style="fill:rgb(255,255,0);"/>
                    <path d="M3368.85,2063.45L3312.17,2063.45L3312.17,2117.34L3368.85,2117.34L3368.85,2063.45ZM3316.53,2067.59L3316.53,2113.19L3364.49,2113.19L3364.49,2067.59L3316.53,2067.59Z"/>
                </g>
                <g transform="matrix(1,7.56853e-17,0,1,476.307,-137.421)">
                    <text x="3372.81px" y="2070.53px" style="font-family:'ArialMT', 'Arial', sans-serif;font-size:50px;">2-23</text>
                </g></a></g>
            <g id="LINK::u2-22" transform="matrix(0.563598,-0.826049,0.826049,0.563598,-1389.11,4024.18)"><a xlink:href="grabliste.html#LINK::u2-22">
                <g transform="matrix(0.955704,0,-5.55112e-17,1.00513,629.49,-187.702)">
                    <rect x="3312.17" y="2063.45" width="56.677" height="53.89" style="fill:rgb(255,0,0);"/>
                    <path d="M3368.85,2063.45L3312.17,2063.45L3312.17,2117.34L3368.85,2117.34L3368.85,2063.45ZM3316.53,2067.59L3316.53,2113.19L3364.49,2113.19L3364.49,2067.59L3316.53,2067.59Z"/>
                </g>
                <g transform="matrix(1,7.56853e-17,0,1,476.307,-137.421)">
                    <text x="3372.81px" y="2070.53px" style="font-family:'ArialMT', 'Arial', sans-serif;font-size:50px;">2-22</text>
                </g></a></g>
            <g id="LINK::u2-21" transform="matrix(0.618768,-0.785574,0.785574,0.618768,-1470.47,3804.74)"><a xlink:href="grabliste.html#LINK::u2-21">
                <g transform="matrix(0.955704,0,-5.55112e-17,1.00513,629.49,-187.702)">
                    <rect x="3312.17" y="2063.45" width="56.677" height="53.89" style="fill:rgb(255,255,0);"/>
                    <path d="M3368.85,2063.45L3312.17,2063.45L3312.17,2117.34L3368.85,2117.34L3368.85,2063.45ZM3316.53,2067.59L3316.53,2113.19L3364.49,2113.19L3364.49,2067.59L3316.53,2067.59Z"/>
                </g>
                <g transform="matrix(1,7.56853e-17,0,1,476.307,-137.421)">
                    <text x="3372.81px" y="2070.53px" style="font-family:'ArialMT', 'Arial', sans-serif;font-size:50px;">2-21</text>
                </g></a></g>
            <g id="LINK::u2-20" transform="matrix(0.705123,-0.709085,0.709085,0.705123,-1603.83,3392.11)"><a xlink:href="grabliste.html#LINK::u2-20">
                <g transform="matrix(0.955704,0,-5.55112e-17,1.00513,629.49,-187.702)">
                    <rect x="3312.17" y="2063.45" width="56.677" height="53.89" style="fill:rgb(255,0,0);"/>
                    <path d="M3368.85,2063.45L3312.17,2063.45L3312.17,2117.34L3368.85,2117.34L3368.85,2063.45ZM3316.53,2067.59L3316.53,2113.19L3364.49,2113.19L3364.49,2067.59L3316.53,2067.59Z"/>
                </g>
                <g transform="matrix(1,7.56853e-17,0,1,476.307,-137.421)">
                    <text x="3372.81px" y="2070.53px" style="font-family:'ArialMT', 'Arial', sans-serif;font-size:50px;">2-20</text>
                </g></a></g>
            <g id="LINK::u2-19" transform="matrix(0.718486,-0.695542,0.695542,0.718486,-1578.76,3365.68)"><a xlink:href="grabliste.html#LINK::u2-19">
                <g transform="matrix(0.955704,0,-5.55112e-17,1.00513,629.49,-187.702)">
                    <rect x="3312.17" y="2063.45" width="56.677" height="53.89" style="fill:rgb(255,0,0);"/>
                    <path d="M3368.85,2063.45L3312.17,2063.45L3312.17,2117.34L3368.85,2117.34L3368.85,2063.45ZM3316.53,2067.59L3316.53,2113.19L3364.49,2113.19L3364.49,2067.59L3316.53,2067.59Z"/>
                </g>
                <g transform="matrix(1,7.56853e-17,0,1,476.307,-137.421)">
                    <text x="3372.81px" y="2070.53px" style="font-family:'ArialMT', 'Arial', sans-serif;font-size:50px;">2-19</text>
                </g></a></g>
            <g id="LINK::u2-18" transform="matrix(0.714061,-0.700084,0.700084,0.714061,-1519.16,3446.03)"><a xlink:href="grabliste.html#LINK::u2-18">
                <g transform="matrix(0.955704,0,-5.55112e-17,1.00513,629.49,-187.702)">
                    <rect x="3312.17" y="2063.45" width="56.677" height="53.89" style="fill:rgb(255,0,0);"/>
                    <path d="M3368.85,2063.45L3312.17,2063.45L3312.17,2117.34L3368.85,2117.34L3368.85,2063.45ZM3316.53,2067.59L3316.53,2113.19L3364.49,2113.19L3364.49,2067.59L3316.53,2067.59Z"/>
                </g>
                <g transform="matrix(1,7.56853e-17,0,1,476.307,-137.421)">
                    <text x="3372.81px" y="2070.53px" style="font-family:'ArialMT', 'Arial', sans-serif;font-size:50px;">2-18</text>
                </g></a></g>
            <g id="LINK::u2-17" transform="matrix(0.637609,-0.77036,0.77036,0.637609,-1303.69,3911.38)"><a xlink:href="grabliste.html#LINK::u2-17">
                <g transform="matrix(0.955704,0,-5.55112e-17,1.00513,629.49,-187.702)">
                    <rect x="3312.17" y="2063.45" width="56.677" height="53.89" style="fill:rgb(255,0,0);"/>
                    <path d="M3368.85,2063.45L3312.17,2063.45L3312.17,2117.34L3368.85,2117.34L3368.85,2063.45ZM3316.53,2067.59L3316.53,2113.19L3364.49,2113.19L3364.49,2067.59L3316.53,2067.59Z"/>
                </g>
                <g transform="matrix(1,7.56853e-17,0,1,476.307,-137.421)">
                    <text x="3372.81px" y="2070.53px" style="font-family:'ArialMT', 'Arial', sans-serif;font-size:50px;">2-17</text>
                </g></a></g>
            <g id="LINK::u2-16" transform="matrix(0.345125,-0.938557,0.938557,0.345125,-437.021,5162.1)"><a xlink:href="grabliste.html#LINK::u2-16">
                <g transform="matrix(0.955704,0,-5.55112e-17,1.00513,629.49,-187.702)">
                    <rect x="3312.17" y="2063.45" width="56.677" height="53.89" style="fill:rgb(255,0,0);"/>
                    <path d="M3368.85,2063.45L3312.17,2063.45L3312.17,2117.34L3368.85,2117.34L3368.85,2063.45ZM3316.53,2067.59L3316.53,2113.19L3364.49,2113.19L3364.49,2067.59L3316.53,2067.59Z"/>
                </g>
                <g transform="matrix(1,7.56853e-17,0,1,476.307,-137.421)">
                    <text x="3372.81px" y="2070.53px" style="font-family:'ArialMT', 'Arial', sans-serif;font-size:50px;">2-16</text>
                </g></a></g>
            <g id="LINK::u2-15" transform="matrix(-0.709435,-0.704771,0.704771,-0.709435,4176.21,6227.33)"><a xlink:href="grabliste.html#LINK::u2-15">
                <g transform="matrix(0.955704,0,-5.55112e-17,1.00513,629.49,-187.702)">
                    <rect x="3312.17" y="2063.45" width="56.677" height="53.89" style="fill:rgb(255,0,0);"/>
                    <path d="M3368.85,2063.45L3312.17,2063.45L3312.17,2117.34L3368.85,2117.34L3368.85,2063.45ZM3364.49,2067.59L3316.53,2067.59L3316.53,2113.19L3364.49,2113.19L3364.49,2067.59Z"/>
                </g>
                <g transform="matrix(1,7.56853e-17,0,1,476.307,-137.421)">
                    <text x="3372.81px" y="2070.53px" style="font-family:'ArialMT', 'Arial', sans-serif;font-size:50px;">2-15</text>
                </g></a></g>
            <g id="LINK::u2-14" transform="matrix(-0.758024,-0.652227,0.652227,-0.758024,4512.14,6064.99)"><a xlink:href="grabliste.html#LINK::u2-14">
                <g transform="matrix(0.955704,0,-5.55112e-17,1.00513,629.49,-187.702)">
                    <rect x="3312.17" y="2063.45" width="56.677" height="53.89" style="fill:rgb(255,0,0);"/>
                    <path d="M3368.85,2063.45L3312.17,2063.45L3312.17,2117.34L3368.85,2117.34L3368.85,2063.45ZM3364.49,2067.59L3316.53,2067.59L3316.53,2113.19L3364.49,2113.19L3364.49,2067.59Z"/>
                </g>
                <g transform="matrix(1,7.56853e-17,0,1,476.307,-137.421)">
                    <text x="3372.81px" y="2070.53px" style="font-family:'ArialMT', 'Arial', sans-serif;font-size:50px;">2-14</text>
                </g></a></g>
            <g id="LINK::u2-13" transform="matrix(-0.81244,-0.583045,0.583045,-0.81244,4893.44,5853.05)"><a xlink:href="grabliste.html#LINK::u2-13">
                <g transform="matrix(0.955704,0,-5.55112e-17,1.00513,629.49,-187.702)">
                    <rect x="3312.17" y="2063.45" width="56.677" height="53.89" style="fill:rgb(255,0,0);"/>
                    <path d="M3368.85,2063.45L3312.17,2063.45L3312.17,2117.34L3368.85,2117.34L3368.85,2063.45ZM3364.49,2067.59L3316.53,2067.59L3316.53,2113.19L3364.49,2113.19L3364.49,2067.59Z"/>
                </g>
                <g transform="matrix(1,7.56853e-17,0,1,476.307,-137.421)">
                    <text x="3372.81px" y="2070.53px" style="font-family:'ArialMT', 'Arial', sans-serif;font-size:50px;">2-13</text>
                </g></a></g>
            <g id="LINK::u2-12" transform="matrix(-0.797542,-0.603264,0.603264,-0.797542,4837.82,5847.89)"><a xlink:href="grabliste.html#LINK::u2-12">
                <g transform="matrix(0.955704,0,-5.55112e-17,1.00513,629.49,-187.702)">
                    <rect x="3312.17" y="2063.45" width="56.677" height="53.89" style="fill:rgb(255,0,0);"/>
                    <path d="M3368.85,2063.45L3312.17,2063.45L3312.17,2117.34L3368.85,2117.34L3368.85,2063.45ZM3364.49,2067.59L3316.53,2067.59L3316.53,2113.19L3364.49,2113.19L3364.49,2067.59Z"/>
                </g>
                <g transform="matrix(1,7.56853e-17,0,1,476.307,-137.421)">
                    <text x="3372.81px" y="2070.53px" style="font-family:'ArialMT', 'Arial', sans-serif;font-size:50px;">2-12</text>
                </g></a></g>
            <g id="LINK::u2-11" transform="matrix(-0.685018,-0.728527,0.728527,-0.685018,4220.09,6056.39)"><a xlink:href="grabliste.html#LINK::u2-11">
                <g transform="matrix(0.955704,0,-5.55112e-17,1.00513,629.49,-187.702)">
                    <rect x="3312.17" y="2063.45" width="56.677" height="53.89" style="fill:rgb(255,0,0);"/>
                    <path d="M3368.85,2063.45L3312.17,2063.45L3312.17,2117.34L3368.85,2117.34L3368.85,2063.45ZM3364.49,2067.59L3316.53,2067.59L3316.53,2113.19L3364.49,2113.19L3364.49,2067.59Z"/>
                </g>
                <g transform="matrix(1,7.56853e-17,0,1,476.307,-137.421)">
                    <text x="3372.81px" y="2070.53px" style="font-family:'ArialMT', 'Arial', sans-serif;font-size:50px;">2-1<tspan x="3441.36px " y="2070.53px ">1</tspan></text>
                </g></a></g>
            <g id="LINK::u2-10" transform="matrix(0.764181,-0.645001,0.645001,0.764181,-843.214,3055.26)"><a xlink:href="grabliste.html#LINK::u2-10">
                <g transform="matrix(0.955704,0,-5.55112e-17,1.00513,629.49,-187.702)">
                    <rect x="3312.17" y="2063.45" width="56.677" height="53.89" style="fill:rgb(255,0,0);"/>
                    <path d="M3368.85,2063.45L3312.17,2063.45L3312.17,2117.34L3368.85,2117.34L3368.85,2063.45ZM3316.53,2067.59L3316.53,2113.19L3364.49,2113.19L3364.49,2067.59L3316.53,2067.59Z"/>
                </g>
                <g transform="matrix(1,7.56853e-17,0,1,476.307,-137.421)">
                    <text x="3372.81px" y="2070.53px" style="font-family:'ArialMT', 'Arial', sans-serif;font-size:50px;">2-10</text>
                </g></a></g>
            <g id="LINK::u2-09" transform="matrix(0.768864,-0.639412,0.639412,0.768864,-812.112,3071.35)"><a xlink:href="grabliste.html#LINK::u2-09">
                <g transform="matrix(0.955704,0,-5.55112e-17,1.00513,629.49,-187.702)">
                    <rect x="3312.17" y="2063.45" width="56.677" height="53.89" style="fill:rgb(255,0,0);"/>
                    <path d="M3368.85,2063.45L3312.17,2063.45L3312.17,2117.34L3368.85,2117.34L3368.85,2063.45ZM3316.53,2067.59L3316.53,2113.19L3364.49,2113.19L3364.49,2067.59L3316.53,2067.59Z"/>
                </g>
                <g transform="matrix(1,7.56853e-17,0,1,476.307,-137.421)">
                    <text x="3372.81px" y="2070.53px" style="font-family:'ArialMT', 'Arial', sans-serif;font-size:50px;">2-09</text>
                </g></a></g>
            <g id="LINK::u2-08" transform="matrix(0.760107,-0.649797,0.649797,0.760107,-760.468,3174.38)"><a xlink:href="grabliste.html#LINK::u2-08">
                <g transform="matrix(0.955704,0,-5.55112e-17,1.00513,629.49,-187.702)">
                    <rect x="3312.17" y="2063.45" width="56.677" height="53.89" style="fill:rgb(255,0,0);"/>
                    <path d="M3368.85,2063.45L3312.17,2063.45L3312.17,2117.34L3368.85,2117.34L3368.85,2063.45ZM3316.53,2067.59L3316.53,2113.19L3364.49,2113.19L3364.49,2067.59L3316.53,2067.59Z"/>
                </g>
                <g transform="matrix(1,7.56853e-17,0,1,476.307,-137.421)">
                    <text x="3372.81px" y="2070.53px" style="font-family:'ArialMT', 'Arial', sans-serif;font-size:50px;">2-08</text>
                </g></a></g>
            <g id="LINK::u2-07" transform="matrix(0.681735,-0.731599,0.731599,0.681735,-575.066,3681.9)"><a xlink:href="grabliste.html#LINK::u2-07">
                <g transform="matrix(0.955704,0,-5.55112e-17,1.00513,629.49,-187.702)">
                    <rect x="3312.17" y="2063.45" width="56.677" height="53.89" style="fill:rgb(255,0,0);"/>
                    <path d="M3368.85,2063.45L3312.17,2063.45L3312.17,2117.34L3368.85,2117.34L3368.85,2063.45ZM3316.53,2067.59L3316.53,2113.19L3364.49,2113.19L3364.49,2067.59L3316.53,2067.59Z"/>
                </g>
                <g transform="matrix(1,7.56853e-17,0,1,476.307,-137.421)">
                    <text x="3372.81px" y="2070.53px" style="font-family:'ArialMT', 'Arial', sans-serif;font-size:50px;">2-07</text>
                </g></a></g>
            <g id="LINK::u2-06" transform="matrix(0.459251,-0.888306,0.888306,0.459251,25.1884,4741.44)"><a xlink:href="grabliste.html#LINK::u2-06">
                <g transform="matrix(0.955704,0,-5.55112e-17,1.00513,629.49,-187.702)">
                    <rect x="3312.17" y="2063.45" width="56.677" height="53.89" style="fill:rgb(255,255,0);"/>
                    <path d="M3368.85,2063.45L3312.17,2063.45L3312.17,2117.34L3368.85,2117.34L3368.85,2063.45ZM3316.53,2067.59L3316.53,2113.19L3364.49,2113.19L3364.49,2067.59L3316.53,2067.59Z"/>
                </g>
                <g transform="matrix(1,7.56853e-17,0,1,476.307,-137.421)">
                    <text x="3372.81px" y="2070.53px" style="font-family:'ArialMT', 'Arial', sans-serif;font-size:50px;">6</text>
                </g></a></g>
            <g id="LINK::u2-05" transform="matrix(-0.532042,-0.846718,0.846718,-0.532042,3994.65,6471.14)"><a xlink:href="grabliste.html#LINK::u2-05">
                <g transform="matrix(0.955704,0,-5.55112e-17,1.00513,629.49,-187.702)">
                    <rect x="3312.17" y="2063.45" width="56.677" height="53.89" style="fill:rgb(255,255,0);"/>
                    <path d="M3368.85,2063.45L3312.17,2063.45L3312.17,2117.34L3368.85,2117.34L3368.85,2063.45ZM3364.49,2067.59L3316.53,2067.59L3316.53,2113.19L3364.49,2113.19L3364.49,2067.59Z"/>
                </g>
                <g transform="matrix(1,7.56853e-17,0,1,476.307,-137.421)">
                    <text x="3372.81px" y="2070.53px" style="font-family:'ArialMT', 'Arial', sans-serif;font-size:50px;">5</text>
                </g></a></g>
            <g id="LINK::u2-04" transform="matrix(-0.554349,-0.832284,0.832284,-0.554349,4158,6425.1)"><a xlink:href="grabliste.html#LINK::u2-04">
                <g transform="matrix(0.955704,0,-5.55112e-17,1.00513,629.49,-187.702)">
                    <rect x="3312.17" y="2063.45" width="56.677" height="53.89" style="fill:rgb(255,0,0);"/>
                    <path d="M3368.85,2063.45L3312.17,2063.45L3312.17,2117.34L3368.85,2117.34L3368.85,2063.45ZM3364.49,2067.59L3316.53,2067.59L3316.53,2113.19L3364.49,2113.19L3364.49,2067.59Z"/>
                </g>
                <g transform="matrix(1,7.56853e-17,0,1,476.307,-137.421)">
                    <text x="3372.81px" y="2070.53px" style="font-family:'ArialMT', 'Arial', sans-serif;font-size:50px;">2-04</text>
                </g></a></g>
            <g id="LINK::u2-03" transform="matrix(-0.532042,-0.846718,0.846718,-0.532042,4090.72,6408.28)"><a xlink:href="grabliste.html#LINK::u2-03">
                <g transform="matrix(0.955704,0,-5.55112e-17,1.00513,629.49,-187.702)">
                    <rect x="3312.17" y="2063.45" width="56.677" height="53.89" style="fill:rgb(255,255,0);"/>
                    <path d="M3368.85,2063.45L3312.17,2063.45L3312.17,2117.34L3368.85,2117.34L3368.85,2063.45ZM3364.49,2067.59L3316.53,2067.59L3316.53,2113.19L3364.49,2113.19L3364.49,2067.59Z"/>
                </g>
                <g transform="matrix(1,7.56853e-17,0,1,476.307,-137.421)">
                    <text x="3372.81px" y="2070.53px" style="font-family:'ArialMT', 'Arial', sans-serif;font-size:50px;">2-03</text>
                </g></a></g>
            <g id="LINK::u2-02" transform="matrix(-0.402814,-0.915282,0.915282,-0.402814,3515.42,6396.18)"><a xlink:href="grabliste.html#LINK::u2-02">
                <g transform="matrix(0.955704,0,-5.55112e-17,1.00513,629.49,-187.702)">
                    <rect x="3312.17" y="2063.45" width="56.677" height="53.89" style="fill:rgb(255,255,0);"/>
                    <path d="M3368.85,2063.45L3312.17,2063.45L3312.17,2117.34L3368.85,2117.34L3368.85,2063.45ZM3364.49,2067.59L3316.53,2067.59L3316.53,2113.19L3364.49,2113.19L3364.49,2067.59Z"/>
                </g>
                <g transform="matrix(1,7.56853e-17,0,1,476.307,-137.421)">
                    <text x="3372.81px" y="2070.53px" style="font-family:'ArialMT', 'Arial', sans-serif;font-size:50px;">2-02</text>
                </g></a></g>
            <g id="LINK::u2-01" transform="matrix(-0.114086,-0.993471,0.993471,-0.114086,2322.03,6125.1)"><a xlink:href="grabliste.html#LINK::u2-01">
                <g transform="matrix(0.955704,0,-5.55112e-17,1.00513,629.49,-187.702)">
                    <rect x="3312.17" y="2063.45" width="56.677" height="53.89" style="fill:rgb(255,0,0);"/>
                    <path d="M3368.85,2063.45L3312.17,2063.45L3312.17,2117.34L3368.85,2117.34L3368.85,2063.45ZM3364.49,2067.59L3316.53,2067.59L3316.53,2113.19L3364.49,2113.19L3364.49,2067.59Z"/>
                </g>
                <g transform="matrix(1,7.56853e-17,0,1,476.307,-137.421)">
                    <text x="3372.81px" y="2070.53px" style="font-family:'ArialMT', 'Arial', sans-serif;font-size:50px;">2-01</text>
                </g></a></g>
            <g id="LINK::u1-17" transform="matrix(0.62803,-0.778189,0.778189,0.62803,-1035.98,2492.5)"><a xlink:href="grabliste.html#LINK::u1-17">
                <g transform="matrix(1.91141,-1.11022e-16,-1.11022e-16,2.01027,-4165.8,-1994.99)">
                    <rect x="3312.17" y="2063.45" width="56.677" height="53.89" style="fill:rgb(255,0,0);"/>
                    <path d="M3368.85,2063.45L3312.17,2063.45L3312.17,2117.34L3368.85,2117.34L3368.85,2063.45ZM3316.53,2067.59L3316.53,2113.19L3364.49,2113.19L3364.49,2067.59L3316.53,2067.59Z"/>
                </g>
                <g transform="matrix(1,2.6323e-16,-1.59609e-17,1,-1207.69,118.38)">
                    <text x="3385.28px" y="2103.8px" style="font-family:'ArialMT', 'Arial', sans-serif;font-size:41.667px;">1-17</text>
                </g></a></g>
            <g id="LINK::u1-16" transform="matrix(0.894411,0.447245,-0.447245,0.894411,1243.89,-851.788)"><a xlink:href="grabliste.html#LINK::u1-16">
                <g transform="matrix(1.91141,-1.11022e-16,-1.11022e-16,2.01027,-4165.8,-1994.99)">
                    <rect x="3312.17" y="2063.45" width="56.677" height="53.89" style="fill:rgb(255,0,0);"/>
                    <path d="M3368.85,2063.45L3312.17,2063.45L3312.17,2117.34L3368.85,2117.34L3368.85,2063.45ZM3316.53,2113.19L3364.49,2113.19L3364.49,2067.59L3316.53,2067.59L3316.53,2113.19Z"/>
                </g>
                <g transform="matrix(1,2.35181e-16,6.6128e-17,1,-1207.69,118.38)">
                    <text x="3385.28px" y="2103.8px" style="font-family:'ArialMT', 'Arial', sans-serif;font-size:41.667px;">1-16</text>
                </g></a></g>
            <g id="LINK::u1-15" transform="matrix(0.676753,0.73621,-0.73621,0.676753,2465.45,-927.213)"><a xlink:href="grabliste.html#LINK::u1-15">
                <g transform="matrix(1.91141,-1.11022e-16,-1.11022e-16,2.01027,-4165.8,-1994.99)">
                    <rect x="3312.17" y="2063.45" width="56.677" height="53.89" style="fill:rgb(255,0,0);"/>
                    <path d="M3368.85,2063.45L3312.17,2063.45L3312.17,2117.34L3368.85,2117.34L3368.85,2063.45ZM3316.53,2113.19L3364.49,2113.19L3364.49,2067.59L3316.53,2067.59L3316.53,2113.19Z"/>
                </g>
                <g transform="matrix(1,2.35181e-16,6.6128e-17,1,-1207.69,118.38)">
                    <text x="3385.28px" y="2103.8px" style="font-family:'ArialMT', 'Arial', sans-serif;font-size:41.667px;">1-15</text>
                </g></a></g>
            <g id="LINK::u1-14" transform="matrix(0.604162,0.796862,-0.796862,0.604162,2844.84,-794.832)"><a xlink:href="grabliste.html#LINK::u1-14">
                <g transform="matrix(1.91141,-1.11022e-16,-1.11022e-16,2.01027,-4165.8,-1994.99)">
                    <rect x="3312.17" y="2063.45" width="56.677" height="53.89" style="fill:rgb(255,0,0);"/>
                    <path d="M3368.85,2063.45L3312.17,2063.45L3312.17,2117.34L3368.85,2117.34L3368.85,2063.45ZM3316.53,2113.19L3364.49,2113.19L3364.49,2067.59L3316.53,2067.59L3316.53,2113.19Z"/>
                </g>
                <g transform="matrix(1,2.35181e-16,6.6128e-17,1,-1207.69,118.38)">
                    <text x="3385.28px" y="2103.8px" style="font-family:'ArialMT', 'Arial', sans-serif;font-size:41.667px;">1-14</text>
                </g></a></g>
            <g id="LINK::u1-13" transform="matrix(0.648515,0.761202,-0.761202,0.648515,2747.59,-710.98)"><a xlink:href="grabliste.html#LINK::u1-13">
                <g transform="matrix(1.91141,-1.11022e-16,-1.11022e-16,2.01027,-4165.8,-1994.99)">
                    <rect x="3312.17" y="2063.45" width="56.677" height="53.89" style="fill:rgb(255,0,0);"/>
                    <path d="M3368.85,2063.45L3312.17,2063.45L3312.17,2117.34L3368.85,2117.34L3368.85,2063.45ZM3316.53,2113.19L3364.49,2113.19L3364.49,2067.59L3316.53,2067.59L3316.53,2113.19Z"/>
                </g>
                <g transform="matrix(1,2.35181e-16,6.6128e-17,1,-1207.69,118.38)">
                    <text x="3385.28px" y="2103.8px" style="font-family:'ArialMT', 'Arial', sans-serif;font-size:41.667px;">1-13</text>
                </g></a></g>
            <g id="LINK::u1-12" transform="matrix(0.925977,-0.37758,0.37758,0.925977,-154.231,1296.39)"><a xlink:href="grabliste.html#LINK::u1-12">
                <g transform="matrix(1.91141,-1.11022e-16,-1.11022e-16,2.01027,-4165.8,-1994.99)">
                    <rect x="3312.17" y="2063.45" width="56.677" height="53.89" style="fill:rgb(255,0,0);"/>
                    <path d="M3368.85,2063.45L3312.17,2063.45L3312.17,2117.34L3368.85,2117.34L3368.85,2063.45ZM3316.53,2067.59L3316.53,2113.19L3364.49,2113.19L3364.49,2067.59L3316.53,2067.59Z"/>
                </g>
                <g transform="matrix(1,2.35181e-16,6.6128e-17,1,-1207.69,118.38)">
                    <text x="3385.28px" y="2103.8px" style="font-family:'ArialMT', 'Arial', sans-serif;font-size:41.667px;">1-12</text>
                </g></a></g>
            <g id="LINK::u1-11" transform="matrix(0.721922,-0.691975,0.691975,0.721922,-278.313,2359.1)"><a xlink:href="grabliste.html#LINK::u1-11">
                <g transform="matrix(1.91141,-1.11022e-16,-1.11022e-16,2.01027,-4165.8,-1994.99)">
                    <rect x="3312.17" y="2063.45" width="56.677" height="53.89" style="fill:rgb(255,0,0);"/>
                    <path d="M3368.85,2063.45L3312.17,2063.45L3312.17,2117.34L3368.85,2117.34L3368.85,2063.45ZM3316.53,2067.59L3316.53,2113.19L3364.49,2113.19L3364.49,2067.59L3316.53,2067.59Z"/>
                </g>
                <g transform="matrix(1,2.35181e-16,6.6128e-17,1,-1207.69,118.38)">
                    <text x="3386.82px" y="2103.8px" style="font-family:'ArialMT', 'Arial', sans-serif;font-size:41.667px;">1-1<tspan x="3443.95px " y="2103.8px ">1</tspan></text>
                </g></a></g>
            <g id="LINK::u1-10" transform="matrix(0.677189,-0.735809,0.735809,0.677189,-181.625,2455.13)"><a xlink:href="grabliste.html#LINK::u1-10">
                <g transform="matrix(1.91141,-1.11022e-16,-1.11022e-16,2.01027,-4165.8,-1994.99)">
                    <rect x="3312.17" y="2063.45" width="56.677" height="53.89" style="fill:rgb(255,0,0);"/>
                    <path d="M3368.85,2063.45L3312.17,2063.45L3312.17,2117.34L3368.85,2117.34L3368.85,2063.45ZM3316.53,2067.59L3316.53,2113.19L3364.49,2113.19L3364.49,2067.59L3316.53,2067.59Z"/>
                </g>
                <g transform="matrix(1,2.35181e-16,6.6128e-17,1,-1207.69,118.38)">
                    <text x="3385.28px" y="2103.8px" style="font-family:'ArialMT', 'Arial', sans-serif;font-size:41.667px;">1-10</text>
                </g></a></g>
            <g id="LINK::u1-09" transform="matrix(0.752808,-0.65824,0.65824,0.752808,-80.2773,2020.52)"><a xlink:href="grabliste.html#LINK::u1-09">
                <g transform="matrix(1.91141,-1.11022e-16,-1.11022e-16,2.01027,-4165.8,-1994.99)">
                    <rect x="3312.17" y="2063.45" width="56.677" height="53.89" style="fill:rgb(255,0,0);"/>
                    <path d="M3368.85,2063.45L3312.17,2063.45L3312.17,2117.34L3368.85,2117.34L3368.85,2063.45ZM3316.53,2067.59L3316.53,2113.19L3364.49,2113.19L3364.49,2067.59L3316.53,2067.59Z"/>
                </g>
                <g transform="matrix(1,2.35181e-16,6.6128e-17,1,-1207.69,118.38)">
                    <text x="3385.28px" y="2103.8px" style="font-family:'ArialMT', 'Arial', sans-serif;font-size:41.667px;">1-09</text>
                </g></a></g>
            <g id="LINK::u1-08" transform="matrix(0.714029,0.700116,-0.700116,0.714029,3155.43,-896.969)"><a xlink:href="grabliste.html#LINK::u1-08">
                <g transform="matrix(1.91141,-1.11022e-16,-1.11022e-16,2.01027,-4165.8,-1994.99)">
                    <rect x="3312.17" y="2063.45" width="56.677" height="53.89" style="fill:rgb(255,255,0);"/>
                    <path d="M3368.85,2063.45L3312.17,2063.45L3312.17,2117.34L3368.85,2117.34L3368.85,2063.45ZM3316.53,2113.19L3364.49,2113.19L3364.49,2067.59L3316.53,2067.59L3316.53,2113.19Z"/>
                </g>
                <g transform="matrix(1,2.35181e-16,6.6128e-17,1,-1207.69,118.38)">
                    <text x="3385.28px" y="2103.8px" style="font-family:'ArialMT', 'Arial', sans-serif;font-size:41.667px;">1-08</text>
                </g></a></g>
            <g id="LINK::u1-07" transform="matrix(0.680058,0.733158,-0.733158,0.680058,3387.87,-805.175)"><a xlink:href="grabliste.html#LINK::u1-07">
                <g transform="matrix(1.91141,-1.11022e-16,-1.11022e-16,2.01027,-4165.8,-1994.99)">
                    <rect x="3312.17" y="2063.45" width="56.677" height="53.89" style="fill:rgb(255,0,0);"/>
                    <path d="M3368.85,2063.45L3312.17,2063.45L3312.17,2117.34L3368.85,2117.34L3368.85,2063.45ZM3316.53,2113.19L3364.49,2113.19L3364.49,2067.59L3316.53,2067.59L3316.53,2113.19Z"/>
                </g>
                <g transform="matrix(1,2.35181e-16,6.6128e-17,1,-1207.69,118.38)">
                    <text x="3385.28px" y="2103.8px" style="font-family:'ArialMT', 'Arial', sans-serif;font-size:41.667px;">1-07</text>
                </g></a></g>
            <g id="LINK::u1-06" transform="matrix(0.795488,0.605969,-0.605969,0.795488,2941.87,-698.134)"><a xlink:href="grabliste.html#LINK::u1-06">
                <g transform="matrix(1.91141,-1.11022e-16,-1.11022e-16,2.01027,-4165.8,-1994.99)">
                    <rect x="3312.17" y="2063.45" width="56.677" height="53.89" style="fill:rgb(255,0,0);"/>
                    <path d="M3368.85,2063.45L3312.17,2063.45L3312.17,2117.34L3368.85,2117.34L3368.85,2063.45ZM3316.53,2113.19L3364.49,2113.19L3364.49,2067.59L3316.53,2067.59L3316.53,2113.19Z"/>
                </g>
                <g transform="matrix(1,2.35181e-16,6.6128e-17,1,-1207.69,118.38)">
                    <text x="3385.28px" y="2103.8px" style="font-family:'ArialMT', 'Arial', sans-serif;font-size:41.667px;">1-06</text>
                </g></a></g>
            <g id="LINK::u1-05" transform="matrix(0.998801,-0.0489535,0.0489535,0.998801,1180.4,353.348)"><a xlink:href="grabliste.html#LINK::u1-05">
                <g transform="matrix(1.91141,-1.11022e-16,-1.11022e-16,2.01027,-4165.8,-1994.99)">
                    <rect x="3312.17" y="2063.45" width="56.677" height="53.89" style="fill:rgb(255,255,0);"/>
                    <path d="M3368.85,2063.45L3312.17,2063.45L3312.17,2117.34L3368.85,2117.34L3368.85,2063.45ZM3316.53,2067.59L3316.53,2113.19L3364.49,2113.19L3364.49,2067.59L3316.53,2067.59Z"/>
                </g>
                <g transform="matrix(1,2.35181e-16,6.6128e-17,1,-1207.69,118.38)">
                    <text x="3385.28px" y="2103.8px" style="font-family:'ArialMT', 'Arial', sans-serif;font-size:41.667px;">1-05</text>
                </g></a></g>
            <g id="LINK::u1-04" transform="matrix(0.842579,-0.538573,0.538573,0.842579,569.283,1734.02)"><a xlink:href="grabliste.html#LINK::u1-04">
                <g transform="matrix(1.91141,-1.11022e-16,-1.11022e-16,2.01027,-4165.8,-1994.99)">
                    <rect x="3312.17" y="2063.45" width="56.677" height="53.89" style="fill:rgb(255,255,0);"/>
                    <path d="M3368.85,2063.45L3312.17,2063.45L3312.17,2117.34L3368.85,2117.34L3368.85,2063.45ZM3316.53,2067.59L3316.53,2113.19L3364.49,2113.19L3364.49,2067.59L3316.53,2067.59Z"/>
                </g>
                <g transform="matrix(1,2.35181e-16,6.6128e-17,1,-1207.69,118.38)">
                    <text x="3385.28px" y="2103.8px" style="font-family:'ArialMT', 'Arial', sans-serif;font-size:41.667px;">1-04</text>
                </g></a></g>
            <g id="LINK::u1-03" transform="matrix(0.878609,-0.477543,0.477543,0.878609,717.632,1461.5)"><a xlink:href="grabliste.html#LINK::u1-03">
                <g transform="matrix(1.91141,-1.11022e-16,-1.11022e-16,2.01027,-4165.8,-1994.99)">
                    <rect x="3312.17" y="2063.45" width="56.677" height="53.89" style="fill:rgb(255,255,0);"/>
                    <path d="M3368.85,2063.45L3312.17,2063.45L3312.17,2117.34L3368.85,2117.34L3368.85,2063.45ZM3316.53,2067.59L3316.53,2113.19L3364.49,2113.19L3364.49,2067.59L3316.53,2067.59Z"/>
                </g>
                <g transform="matrix(1,2.35181e-16,6.6128e-17,1,-1207.69,118.38)">
                    <text x="3385.28px" y="2103.8px" style="font-family:'ArialMT', 'Arial', sans-serif;font-size:41.667px;">1-03</text>
                </g></a></g>
            <g id="LINK::u1-02" transform="matrix(0.999221,-0.039472,0.039472,0.999221,1539.31,187.212)"><a xlink:href="grabliste.html#LINK::u1-02">
                <g transform="matrix(1.91141,-1.11022e-16,-1.11022e-16,2.01027,-4165.8,-1994.99)">
                    <rect x="3312.17" y="2063.45" width="56.677" height="53.89" style="fill:rgb(255,255,0);"/>
                    <path d="M3368.85,2063.45L3312.17,2063.45L3312.17,2117.34L3368.85,2117.34L3368.85,2063.45ZM3316.53,2067.59L3316.53,2113.19L3364.49,2113.19L3364.49,2067.59L3316.53,2067.59Z"/>
                </g>
                <g transform="matrix(1,2.35181e-16,6.6128e-17,1,-1207.69,118.38)">
                    <text x="3385.28px" y="2103.8px" style="font-family:'ArialMT', 'Arial', sans-serif;font-size:41.667px;">1-02</text>
                </g></a></g>
        </g>
    </g>
</svg>
